<svg xmlns="http://www.w3.org/2000/svg" xmlns:xlink="http://www.w3.org/1999/xlink" viewBox="0 0 514.6 322.897">
  <defs>
    <style>
      .zeppelin-cls-1 {
        fill: #3071a9;
        stroke: rgba(255,255,255,0.37);
      }

      .zeppelin-cls-2 {
        filter: url(#path3051);
      }
    </style>
    <filter id="path3051" x="0" y="0" width="514.6" height="322.897" filterUnits="userSpaceOnUse">
      <feOffset dx="3" dy="3" input="SourceAlpha"/>
      <feGaussianBlur stdDeviation="5" result="blur"/>
      <feFlood flood-color="#fff"/>
      <feComposite operator="in" in2="blur"/>
      <feComposite in="SourceGraphic"/>
    </filter>
  </defs>
  <g id="git_commit" transform="translate(-33.196 -846.273)">
    <g class="zeppelin-cls-2" transform="matrix(1, 0, 0, 1, 33.2, 846.27)">
      <path id="path3051-2" data-name="path3051" class="zeppelin-cls-1" d="M399.842,858.775c-45.067-.175-95.024,13.908-121.947,30.515-10.064,6.207-20.39,13.157-30.738,20.492,0,0-93.38,71.9-122.394,108.087a114.058,114.058,0,0,0-10.507,15.574c-.208.4-.429.794-.633,1.192-.288.53-.578,1.068-.857,1.6-.066.134-.121.276-.186.41a109.912,109.912,0,0,0-9.8,29.77c-.014.086-.023.174-.037.261-.052.36-.1.719-.149,1.081-1.56,11.885-.917,24.567,3.949,35.321,5.916,13.073,15.764,22.83,30.03,30.85,13.758,7.734,38.935,14.307,38.935,14.307l-.41.186c20.983,3.722,42.72,2.472,63.935.41q15.6-1.517,31.223-3.465h.037c.071,0,.3,0,.373,0-.686-3.494-1.795-10.186-.447-10.544,14.262-3.8,22.753-6.085,33.868-9.948a163.068,163.068,0,0,0,27.012-11.811c2.151-1.187,3.853-3.166,6.11-4.136,7.126-3.062,15.061-3.78,22.728-4.955a140.533,140.533,0,0,1,18.517-1.677,57.466,57.466,0,0,1,12.034.6,26.645,26.645,0,0,1,8.718,3.018,14.407,14.407,0,0,1,4.546,4.21c.611,1.3,1.116,2.671,1.6,4.024,22.533-8.443,45.42-18.623,62.818-35.135,25.735-24.424,46.182-56.344,56.3-90.352,5.5-18.474,6.449-39.234,1.229-57.788-3.227-11.471-8.2-18.853-19.3-30.1-22.7-23.017-55.775-37.252-87.893-40.947a170.02,170.02,0,0,0-18.667-1.043ZM247.157,909.782c-4.61,3.268-9.236,6.614-13.823,10.023ZM344.364,931.5c14.6-.043,22.69,2.2,22.69,2.2s-24.021,2.242-37.37,4.62c-10.574,1.884-27.582,5.159-40.835,9.65-25.842,8.758-50.426,21-74.7,33.458-18.66,9.574-36.54,20.634-54.4,31.632-12.205,7.517-36.029,23.473-36.029,23.473s20.3-26.235,74.293-56.558c15.438-8.67,31.192-16.8,47.355-24.032C258,950.3,270.8,944.913,284.042,940.893a236.5,236.5,0,0,1,30.813-6.856,208.266,208.266,0,0,1,22.839-2.347C340.04,931.578,342.278,931.51,344.364,931.5ZM159.152,956.541c-4.782.028-8.883,5.641-11.4,9.873-3.227,5.424-4.661,14.732-5.328,22.169,10.362-8.862,20.7-17.107,27.869-22.69-2.769-4.652-6.238-8.674-10.172-9.277A6.159,6.159,0,0,0,159.152,956.541Zm208.759,23.7s-45.08,17.107-67.475,26.044q-38.7,15.443-77.05,31.781-26.792,11.472-53.28,23.659c-16.235,7.452-48.436,22.951-48.436,22.951s27.421-22.48,78.28-44.71c29.68-12.973,49.694-24.339,81.633-34.762,14.914-4.867,29.633-10.347,44.71-14.68C340.024,986.575,367.911,980.238,367.911,980.238Zm15.649,45.753s-6.328,7.535-20.455,16.878c-7.064,4.672-13.257,9.57-20.194,13.86-8.979,5.553-18.2,10.72-27.683,15.35-11.761,5.74-23.972,10.537-36.141,15.35-11.929,4.718-23.926,9.307-36.141,13.227-15.07,4.836-30.287,9.31-45.753,12.668-11.223,2.436-34.017,5.4-34.017,5.4s28.127-9.528,42.139-14.456c14.8-5.2,28.825-10.113,44.263-15.947,15.959-6.03,27.37-10.424,40.947-15.909,11.1-4.485,22.279-8.82,33.123-13.9,8.293-3.883,16.342-8.287,24.4-12.631C360,1039.451,383.56,1025.991,383.56,1025.991Zm32.75,29.546s-.377,4.674-12.258,16.841a115.538,115.538,0,0,1-18.629,14.568c-20.855,12.852-31.968,16.133-31.968,16.133s20.589-13.466,30.552-20.678c5.867-4.247,11.651-8.662,17.213-13.3C406.414,1064.767,416.31,1055.537,416.31,1055.537ZM96.446,1100.061c-7,3.151-15.445,7.06-20.976,10.023-10.256,5.493-30.435,15.1-29.769,18.219,1.018,4.767,23.864-4.453,35.768-6.818,7.574-1.5,15.105-3.084,22.653-4.695A97.386,97.386,0,0,1,96.446,1100.061ZM375.7,1107.7a96.474,96.474,0,0,0-10.209.633c-12.055,1.337-15.318,2.414-24.963,5.552-3.436,1.118-5.464,2.915-8.16,4.4-4.844,2.663-9.406,5.876-14.456,8.122-7.257,3.228-14.977,5.3-22.579,7.6-6.268,1.9-7.135,2.27-18.965,5.1-2.053.492-.122,3.846,1.714,6.408,28.065.569,112.952,1.926,114.085-2.794l6.259-26.006c.558-.2,1.119-.393,1.677-.6a9.968,9.968,0,0,0-.894-2.385,10.874,10.874,0,0,0-4.359-4.21c-3.049-1.5-6.668-1.265-10.06-1.49C381.584,1107.821,378.731,1107.679,375.7,1107.7Zm15.35,7c3.364.056,6.091.568,6.073,2.236-.038,3.59-7.752,3.413-11.289,3.763-22.817,2.256-30.818,1.872-46.238,1.937-2.962.013-8.868-.3-8.868-.3s14.816-3.517,27.981-5.1c7.654-.923,15.12-1.878,22.467-2.124C383.7,1115.029,387.685,1114.647,391.049,1114.7Zm-17.474,14.307a52.267,52.267,0,0,1,8.2.41c2.142.3,4.559.405,6.222,1.788.742.617,1.6,1.939,1.3,2.571-.609,1.283-2.9,1.344-7.787,1.677-5.857.4-11.57.87-17.362,1.043-14.363.428-43.108-.075-43.108-.075s8.965-2.381,13.525-3.2a264.113,264.113,0,0,1,30.775-3.8C368.07,1129.254,370.832,1129.063,373.574,1129.01Z" transform="translate(-33.2 -846.27)"/>
    </g>
  </g>
</svg>
